<svg width="120" height="120" viewBox="0 0 120 120" fill="none" xmlns="http://www.w3.org/2000/svg">
  <!-- Code Editor Window -->
  <rect x="10" y="15" width="90" height="70" rx="6" fill="#7C6AE8" stroke="#5B4BC7" stroke-width="2"/>

  <!-- Window Title Bar -->
  <rect x="10" y="15" width="90" height="14" rx="6" fill="#5B4BC7"/>
  <rect x="10" y="23" width="90" height="6" fill="#5B4BC7"/>

  <!-- Window Buttons -->
  <circle cx="20" cy="22" r="3" fill="#FF6B6B"/>
  <circle cx="30" cy="22" r="3" fill="#FFD93D"/>
  <circle cx="40" cy="22" r="3" fill="#6BCB77"/>

  <!-- Code Lines -->
  <rect x="18" y="38" width="35" height="4" rx="2" fill="#A5F3C0"/>
  <rect x="18" y="46" width="50" height="4" rx="2" fill="#E0E7FF"/>
  <rect x="26" y="54" width="40" height="4" rx="2" fill="#93C5FD"/>
  <rect x="26" y="62" width="55" height="4" rx="2" fill="#A5F3C0"/>
  <rect x="18" y="70" width="30" height="4" rx="2" fill="#E0E7FF"/>

  <!-- Magic Sparkle -->
  <path d="M95 10L97 16L103 18L97 20L95 26L93 20L87 18L93 16L95 10Z" fill="#FFD93D"/>
  <circle cx="102" cy="12" r="2" fill="#FFD93D"/>
  <circle cx="88" cy="8" r="1.5" fill="#FFD93D"/>

  <!-- Cursor/Wand -->
  <rect x="75" y="50" width="3" height="15" rx="1" fill="#FFD93D" transform="rotate(-30 75 50)"/>

  <!-- Bottom decoration -->
  <rect x="25" y="95" width="20" height="3" rx="1.5" fill="#C4B5FD"/>
  <rect x="50" y="95" width="30" height="3" rx="1.5" fill="#C4B5FD"/>
  <rect x="85" y="95" width="10" height="3" rx="1.5" fill="#C4B5FD"/>
</svg>
