<svg width="120" height="120" viewBox="0 0 120 120" fill="none" xmlns="http://www.w3.org/2000/svg">
  <!-- Clock Circle -->
  <circle cx="60" cy="55" r="45" fill="#FEF3C7" stroke="#F59E0B" stroke-width="3"/>

  <!-- Clock Inner Circle -->
  <circle cx="60" cy="55" r="38" fill="white" stroke="#FCD34D" stroke-width="2"/>

  <!-- Hour Markers -->
  <rect x="58" y="20" width="4" height="8" rx="2" fill="#F59E0B"/>
  <rect x="58" y="82" width="4" height="8" rx="2" fill="#F59E0B"/>
  <rect x="20" y="53" width="8" height="4" rx="2" fill="#F59E0B"/>
  <rect x="92" y="53" width="8" height="4" rx="2" fill="#F59E0B"/>

  <!-- Clock Hands -->
  <rect x="58" y="35" width="4" height="22" rx="2" fill="#7C3AED"/>
  <rect x="58" y="50" width="20" height="4" rx="2" fill="#7C3AED" transform="rotate(30 60 55)"/>

  <!-- Center Dot -->
  <circle cx="60" cy="55" r="4" fill="#7C3AED"/>

  <!-- History List Items -->
  <rect x="5" y="100" width="30" height="6" rx="3" fill="#C4B5FD"/>
  <rect x="40" y="100" width="40" height="6" rx="3" fill="#E0E7FF"/>
  <rect x="85" y="100" width="25" height="6" rx="3" fill="#C4B5FD"/>

  <!-- Timeline dots -->
  <circle cx="15" cy="108" r="3" fill="#8B5CF6"/>
  <circle cx="55" cy="108" r="3" fill="#A78BFA"/>
  <circle cx="95" cy="108" r="3" fill="#8B5CF6"/>

  <!-- Magnifying Glass -->
  <circle cx="95" cy="75" r="12" fill="white" stroke="#22C55E" stroke-width="3"/>
  <rect x="103" y="83" width="4" height="15" rx="2" fill="#22C55E" transform="rotate(45 103 83)"/>

  <!-- Eye in magnifying glass -->
  <circle cx="95" cy="75" r="5" fill="#22C55E"/>
  <circle cx="95" cy="75" r="2" fill="white"/>
</svg>
